ffmpeg started on 2025-06-06 at 17:28:32
Report written to "D:\Convert\FFMetrics\reports\ssim_report-6.txt"
Log level: 32
Command line:
ffmpeg -hide_banner -nostdin -i "G:\\\xc0\xed\xe8\xec\xe5\\\xce\xed\xe3\xee\xe8\xed\xe3\xe8\\!_36_\xce\xf1\xe5\xed\xfc_2024\\DreamCast\\\xcf\xeb\xee\xf5\xe0\xff \xef\xee\xe5\xe7\xe4\xea\xe0\\[DC] Acro Trip - 09_Telegram_HEVC.mkv" -i "G:\\\xc0\xed\xe8\xec\xe5\\\xce\xed\xe3\xee\xe8\xed\xe3\xe8\\!_36_\xce\xf1\xe5\xed\xfc_2024\\DreamCast\\\xcf\xeb\xee\xf5\xe0\xff \xef\xee\xe5\xe7\xe4\xea\xe0\\[DC] Acro Trip - 09_Telegram.mp4" -lavfi "[0:v]settb=AVTB,setpts=PTS-STARTPTS,format=pix_fmts=yuv420p10,fps=24000/1001,scale=1920:1080:flags=bicubic[main];[1:v]settb=AVTB,setpts=PTS-STARTPTS,format=pix_fmts=yuv420p,fps=24000/1001,scale=1920:1080:flags=bicubic[ref];[main][ref]ssim=eof_action=endall:stats_file='D\\:/Convert/FFMetrics/logs/ssim_logfile-6.txt'" -f null -
Input #0, matroska,webm, from 'G:\Аниме\Онгоинги\!_36_Осень_2024\DreamCast\Плохая поездка\[DC] Acro Trip - 09_Telegram_HEVC.mkv':
  Metadata:
    COMPATIBLE_BRANDS: isomiso2avc1mp41
    MAJOR_BRAND     : isom
    MINOR_VERSION   : 512
    ENCODER         : Lavf61.7.100
  Duration: 00:23:46.65, start: -0.021000, bitrate: 1164 kb/s
  Stream #0:0: Video: hevc (Main 10), yuv420p10le(tv, bt709, progressive), 1920x1080 [SAR 1:1 DAR 16:9], 23.98 fps, 23.98 tbr, 1k tbn (default)
      Metadata:
        HANDLER_NAME    : VideoHandler
        VENDOR_ID       : [0][0][0][0]
        ENCODER         : Lavc61.19.100 libx265
        BPS             : 967707
        DURATION        : 00:23:46.549708333
        NUMBER_OF_FRAMES: 34203
        NUMBER_OF_BYTES : 172560270
        _STATISTICS_WRITING_APP: mkvpropedit v66.0.0 ('Josie') 64-bit
        _STATISTICS_WRITING_DATE_UTC: 2025-06-02 13:08:10
        _STATISTICS_TAGS: BPS DURATION NUMBER_OF_FRAMES NUMBER_OF_BYTES
  Stream #0:1: Audio: aac (LC), 48000 Hz, stereo, fltp (default)
      Metadata:
        HANDLER_NAME    : SoundHandler
        VENDOR_ID       : [0][0][0][0]
        ENCODER         : Lavc61.19.100 aac
        BPS             : 193190
        DURATION        : 00:23:46.645000000
        NUMBER_OF_FRAMES: 66875
        NUMBER_OF_BYTES : 34451761
        _STATISTICS_WRITING_APP: mkvpropedit v66.0.0 ('Josie') 64-bit
        _STATISTICS_WRITING_DATE_UTC: 2025-06-02 13:08:10
        _STATISTICS_TAGS: BPS DURATION NUMBER_OF_FRAMES NUMBER_OF_BYTES
Input #1, mov,mp4,m4a,3gp,3g2,mj2, from 'G:\Аниме\Онгоинги\!_36_Осень_2024\DreamCast\Плохая поездка\[DC] Acro Trip - 09_Telegram.mp4':
  Metadata:
    major_brand     : isom
    minor_version   : 512
    compatible_brands: isomiso2avc1mp41
    encoder         : Lavf61.1.100
  Duration: 00:23:46.62, start: 0.000000, bitrate: 3808 kb/s
  Stream #1:0[0x1](und): Video: h264 (High) (avc1 / 0x31637661), yuv420p(tv, bt709, progressive), 1920x1080 [SAR 1:1 DAR 16:9], 3661 kb/s, 23.98 fps, 23.98 tbr, 24k tbn (default)
      Metadata:
        handler_name    : VideoHandler
        vendor_id       : [0][0][0][0]
        encoder         : Lavc61.3.100 h264_qsv
  Stream #1:1[0x2](und): Audio: aac (HE-AACv2) (mp4a / 0x6134706D), 48000 Hz, stereo, fltp, 144 kb/s (default)
      Metadata:
        handler_name    : SoundHandler
        vendor_id       : [0][0][0][0]
Stream mapping:
  Stream #0:0 (hevc) -> settb:default
  Stream #1:0 (h264) -> settb:default
  ssim:default -> Stream #0:0 (wrapped_avframe)
  Stream #0:1 -> #0:1 (aac (native) -> pcm_s16le (native))
Output #0, null, to 'pipe:':
  Metadata:
    COMPATIBLE_BRANDS: isomiso2avc1mp41
    MAJOR_BRAND     : isom
    MINOR_VERSION   : 512
    encoder         : Lavf61.7.100
  Stream #0:0: Video: wrapped_avframe, yuv420p10le(tv, bt709, progressive), 1920x1080 [SAR 1:1 DAR 16:9], q=2-31, 200 kb/s, 23.98 fps, 23.98 tbn
      Metadata:
        encoder         : Lavc61.19.100 wrapped_avframe
  Stream #0:1: Audio: pcm_s16le, 48000 Hz, stereo, s16, 1536 kb/s (default)
      Metadata:
        HANDLER_NAME    : SoundHandler
        VENDOR_ID       : [0][0][0][0]
        _STATISTICS_TAGS: BPS DURATION NUMBER_OF_FRAMES NUMBER_OF_BYTES
        BPS             : 193190
        DURATION        : 00:23:46.645000000
        NUMBER_OF_FRAMES: 66875
        NUMBER_OF_BYTES : 34451761
        _STATISTICS_WRITING_APP: mkvpropedit v66.0.0 ('Josie') 64-bit
        _STATISTICS_WRITING_DATE_UTC: 2025-06-02 13:08:10
        encoder         : Lavc61.19.100 pcm_s16le
frame=  183 fps=0.0 q=-0.0 size=N/A time=00:00:07.63 bitrate=N/A speed=14.6x    frame=  426 fps=412 q=-0.0 size=N/A time=00:00:17.76 bitrate=N/A speed=17.2x    frame=  688 fps=442 q=-0.0 size=N/A time=00:00:28.69 bitrate=N/A speed=18.4x    frame=  973 fps=471 q=-0.0 size=N/A time=00:00:40.58 bitrate=N/A speed=19.6x    frame= 1267 fps=489 q=-0.0 size=N/A time=00:00:52.84 bitrate=N/A speed=20.4x    frame= 1557 fps=502 q=-0.0 size=N/A time=00:01:04.93 bitrate=N/A speed=20.9x    frame= 1823 fps=504 q=-0.0 size=N/A time=00:01:16.03 bitrate=N/A speed=  21x    frame= 2098 fps=508 q=-0.0 size=N/A time=00:01:27.50 bitrate=N/A speed=21.2x    frame= 2354 fps=507 q=-0.0 size=N/A time=00:01:38.18 bitrate=N/A speed=21.1x    frame= 2614 fps=506 q=-0.0 size=N/A time=00:01:49.02 bitrate=N/A speed=21.1x    frame= 2864 fps=505 q=-0.0 size=N/A time=00:01:59.45 bitrate=N/A speed=21.1x    frame= 3116 fps=503 q=-0.0 size=N/A time=00:02:09.96 bitrate=N/A speed=  21x    frame= 3373 fps=502 q=-0.0 size=N/A time=00:02:20.68 bitrate=N/A speed=  21x    frame= 3630 fps=503 q=-0.0 size=N/A time=00:02:31.40 bitrate=N/A speed=  21x    frame= 3897 fps=503 q=-0.0 size=N/A time=00:02:42.53 bitrate=N/A speed=  21x    frame= 4090 fps=496 q=-0.0 size=N/A time=00:02:50.58 bitrate=N/A speed=20.7x    frame= 4285 fps=488 q=-0.0 size=N/A time=00:02:58.72 bitrate=N/A speed=20.4x    frame= 4514 fps=486 q=-0.0 size=N/A time=00:03:08.27 bitrate=N/A speed=20.3x    frame= 4726 fps=482 q=-0.0 size=N/A time=00:03:17.11 bitrate=N/A speed=20.1x    frame= 4911 fps=476 q=-0.0 size=N/A time=00:03:24.82 bitrate=N/A speed=19.9x    frame= 5124 fps=473 q=-0.0 size=N/A time=00:03:33.71 bitrate=N/A speed=19.7x    frame= 5298 fps=467 q=-0.0 size=N/A time=00:03:40.97 bitrate=N/A speed=19.5x    frame= 5461 fps=460 q=-0.0 size=N/A time=00:03:47.76 bitrate=N/A speed=19.2x    frame= 5626 fps=454 q=-0.0 size=N/A time=00:03:54.65 bitrate=N/A speed=  19x    frame= 5794 fps=449 q=-0.0 size=N/A time=00:04:01.65 bitrate=N/A speed=18.7x    frame= 5961 fps=444 q=-0.0 size=N/A time=00:04:08.62 bitrate=N/A speed=18.5x    frame= 6142 fps=441 q=-0.0 size=N/A time=00:04:16.17 bitrate=N/A speed=18.4x    frame= 6358 fps=440 q=-0.0 size=N/A time=00:04:25.18 bitrate=N/A speed=18.4x    frame= 6618 fps=442 q=-0.0 size=N/A time=00:04:36.02 bitrate=N/A speed=18.4x    frame= 6852 fps=443 q=-0.0 size=N/A time=00:04:45.78 bitrate=N/A speed=18.5x    frame= 7083 fps=443 q=-0.0 size=N/A time=00:04:55.42 bitrate=N/A speed=18.5x    frame= 7350 fps=445 q=-0.0 size=N/A time=00:05:06.55 bitrate=N/A speed=18.6x    frame= 7635 fps=448 q=-0.0 size=N/A time=00:05:18.44 bitrate=N/A speed=18.7x    frame= 7892 fps=450 q=-0.0 size=N/A time=00:05:29.16 bitrate=N/A speed=18.8x    frame= 8160 fps=452 q=-0.0 size=N/A time=00:05:40.34 bitrate=N/A speed=18.8x    frame= 8415 fps=453 q=-0.0 size=N/A time=00:05:50.97 bitrate=N/A speed=18.9x    frame= 8662 fps=454 q=-0.0 size=N/A time=00:06:01.27 bitrate=N/A speed=18.9x    frame= 8915 fps=455 q=-0.0 size=N/A time=00:06:11.82 bitrate=N/A speed=  19x    frame= 9158 fps=455 q=-0.0 size=N/A time=00:06:21.96 bitrate=N/A speed=  19x    frame= 9402 fps=456 q=-0.0 size=N/A time=00:06:32.14 bitrate=N/A speed=  19x    frame= 9665 fps=457 q=-0.0 size=N/A time=00:06:43.11 bitrate=N/A speed=19.1x    frame= 9949 fps=459 q=-0.0 size=N/A time=00:06:54.95 bitrate=N/A speed=19.1x    frame=10208 fps=460 q=-0.0 size=N/A time=00:07:05.75 bitrate=N/A speed=19.2x    frame=10467 fps=461 q=-0.0 size=N/A time=00:07:16.56 bitrate=N/A speed=19.2x    frame=10714 fps=461 q=-0.0 size=N/A time=00:07:26.86 bitrate=N/A speed=19.2x    frame=10969 fps=462 q=-0.0 size=N/A time=00:07:37.49 bitrate=N/A speed=19.3x    frame=11228 fps=463 q=-0.0 size=N/A time=00:07:48.30 bitrate=N/A speed=19.3x    frame=11491 fps=464 q=-0.0 size=N/A time=00:07:59.27 bitrate=N/A speed=19.3x    frame=11675 fps=462 q=-0.0 size=N/A time=00:08:06.94 bitrate=N/A speed=19.3x    frame=11923 fps=462 q=-0.0 size=N/A time=00:08:17.28 bitrate=N/A speed=19.3x    frame=12212 fps=464 q=-0.0 size=N/A time=00:08:29.34 bitrate=N/A speed=19.4x    frame=12469 fps=465 q=-0.0 size=N/A time=00:08:40.06 bitrate=N/A speed=19.4x    frame=12739 fps=466 q=-0.0 size=N/A time=00:08:51.32 bitrate=N/A speed=19.4x    frame=13015 fps=467 q=-0.0 size=N/A time=00:09:02.83 bitrate=N/A speed=19.5x    frame=13263 fps=467 q=-0.0 size=N/A time=00:09:13.17 bitrate=N/A speed=19.5x    frame=13522 fps=468 q=-0.0 size=N/A time=00:09:23.98 bitrate=N/A speed=19.5x    frame=13754 fps=468 q=-0.0 size=N/A time=00:09:33.65 bitrate=N/A speed=19.5x    frame=13958 fps=466 q=-0.0 size=N/A time=00:09:42.16 bitrate=N/A speed=19.5x    frame=14220 fps=467 q=-0.0 size=N/A time=00:09:53.09 bitrate=N/A speed=19.5x    frame=14483 fps=468 q=-0.0 size=N/A time=00:10:04.06 bitrate=N/A speed=19.5x    frame=14739 fps=468 q=-0.0 size=N/A time=00:10:14.73 bitrate=N/A speed=19.5x    frame=15005 fps=469 q=-0.0 size=N/A time=00:10:25.83 bitrate=N/A speed=19.6x    frame=15258 fps=469 q=-0.0 size=N/A time=00:10:36.38 bitrate=N/A speed=19.6x    frame=15498 fps=469 q=-0.0 size=N/A time=00:10:46.39 bitrate=N/A speed=19.6x    frame=15759 fps=470 q=-0.0 size=N/A time=00:10:57.28 bitrate=N/A speed=19.6x    frame=15959 fps=469 q=-0.0 size=N/A time=00:11:05.62 bitrate=N/A speed=19.5x    frame=16238 fps=470 q=-0.0 size=N/A time=00:11:17.25 bitrate=N/A speed=19.6x    frame=16507 fps=471 q=-0.0 size=N/A time=00:11:28.47 bitrate=N/A speed=19.6x    frame=16797 fps=472 q=-0.0 size=N/A time=00:11:40.57 bitrate=N/A speed=19.7x    frame=17053 fps=472 q=-0.0 size=N/A time=00:11:51.25 bitrate=N/A speed=19.7x    frame=17318 fps=473 q=-0.0 size=N/A time=00:12:02.30 bitrate=N/A speed=19.7x    frame=17579 fps=473 q=-0.0 size=N/A time=00:12:13.19 bitrate=N/A speed=19.7x    frame=17761 fps=472 q=-0.0 size=N/A time=00:12:20.78 bitrate=N/A speed=19.7x    frame=17990 fps=471 q=-0.0 size=N/A time=00:12:30.33 bitrate=N/A speed=19.7x    frame=18251 fps=472 q=-0.0 size=N/A time=00:12:41.21 bitrate=N/A speed=19.7x    frame=18476 fps=471 q=-0.0 size=N/A time=00:12:50.60 bitrate=N/A speed=19.7x    frame=18719 fps=471 q=-0.0 size=N/A time=00:13:00.73 bitrate=N/A speed=19.7x    frame=18955 fps=471 q=-0.0 size=N/A time=00:13:10.58 bitrate=N/A speed=19.6x    frame=19175 fps=471 q=-0.0 size=N/A time=00:13:19.75 bitrate=N/A speed=19.6x    frame=19421 fps=471 q=-0.0 size=N/A time=00:13:30.01 bitrate=N/A speed=19.6x    frame=19682 fps=471 q=-0.0 size=N/A time=00:13:40.90 bitrate=N/A speed=19.6x    frame=19969 fps=472 q=-0.0 size=N/A time=00:13:52.87 bitrate=N/A speed=19.7x    frame=20250 fps=473 q=-0.0 size=N/A time=00:14:04.59 bitrate=N/A speed=19.7x    frame=20524 fps=473 q=-0.0 size=N/A time=00:14:16.02 bitrate=N/A speed=19.7x    frame=20789 fps=474 q=-0.0 size=N/A time=00:14:27.07 bitrate=N/A speed=19.8x    frame=21064 fps=474 q=-0.0 size=N/A time=00:14:38.54 bitrate=N/A speed=19.8x    frame=21335 fps=475 q=-0.0 size=N/A time=00:14:49.84 bitrate=N/A speed=19.8x    frame=21602 fps=476 q=-0.0 size=N/A time=00:15:00.98 bitrate=N/A speed=19.8x    frame=21833 fps=475 q=-0.0 size=N/A time=00:15:10.61 bitrate=N/A speed=19.8x    frame=22084 fps=475 q=-0.0 size=N/A time=00:15:21.08 bitrate=N/A speed=19.8x    frame=22299 fps=475 q=-0.0 size=N/A time=00:15:30.05 bitrate=N/A speed=19.8x    frame=22545 fps=475 q=-0.0 size=N/A time=00:15:40.31 bitrate=N/A speed=19.8x    frame=22761 fps=474 q=-0.0 size=N/A time=00:15:49.32 bitrate=N/A speed=19.8x    frame=22960 fps=473 q=-0.0 size=N/A time=00:15:57.62 bitrate=N/A speed=19.7x    frame=23199 fps=473 q=-0.0 size=N/A time=00:16:07.59 bitrate=N/A speed=19.7x    frame=23463 fps=474 q=-0.0 size=N/A time=00:16:18.60 bitrate=N/A speed=19.8x    frame=23670 fps=473 q=-0.0 size=N/A time=00:16:27.23 bitrate=N/A speed=19.7x    frame=23907 fps=473 q=-0.0 size=N/A time=00:16:37.12 bitrate=N/A speed=19.7x    frame=24149 fps=473 q=-0.0 size=N/A time=00:16:47.21 bitrate=N/A speed=19.7x    frame=24404 fps=473 q=-0.0 size=N/A time=00:16:57.85 bitrate=N/A speed=19.7x    frame=24677 fps=473 q=-0.0 size=N/A time=00:17:09.23 bitrate=N/A speed=19.7x    frame=24925 fps=473 q=-0.0 size=N/A time=00:17:19.58 bitrate=N/A speed=19.7x    frame=25161 fps=473 q=-0.0 size=N/A time=00:17:29.42 bitrate=N/A speed=19.7x    frame=25378 fps=473 q=-0.0 size=N/A time=00:17:38.47 bitrate=N/A speed=19.7x    frame=25628 fps=473 q=-0.0 size=N/A time=00:17:48.90 bitrate=N/A speed=19.7x    frame=25829 fps=472 q=-0.0 size=N/A time=00:17:57.28 bitrate=N/A speed=19.7x    frame=26078 fps=472 q=-0.0 size=N/A time=00:18:07.66 bitrate=N/A speed=19.7x    frame=26317 fps=472 q=-0.0 size=N/A time=00:18:17.63 bitrate=N/A speed=19.7x    frame=26534 fps=472 q=-0.0 size=N/A time=00:18:26.68 bitrate=N/A speed=19.7x    frame=26804 fps=472 q=-0.0 size=N/A time=00:18:37.95 bitrate=N/A speed=19.7x    frame=27061 fps=472 q=-0.0 size=N/A time=00:18:48.66 bitrate=N/A speed=19.7x    frame=27292 fps=472 q=-0.0 size=N/A time=00:18:58.30 bitrate=N/A speed=19.7x    frame=27559 fps=473 q=-0.0 size=N/A time=00:19:09.43 bitrate=N/A speed=19.7x    frame=27799 fps=473 q=-0.0 size=N/A time=00:19:19.44 bitrate=N/A speed=19.7x    frame=28048 fps=473 q=-0.0 size=N/A time=00:19:29.83 bitrate=N/A speed=19.7x    frame=28307 fps=473 q=-0.0 size=N/A time=00:19:40.63 bitrate=N/A speed=19.7x    frame=28552 fps=473 q=-0.0 size=N/A time=00:19:50.85 bitrate=N/A speed=19.7x    frame=28780 fps=473 q=-0.0 size=N/A time=00:20:00.36 bitrate=N/A speed=19.7x    frame=29037 fps=473 q=-0.0 size=N/A time=00:20:11.08 bitrate=N/A speed=19.7x    frame=29289 fps=473 q=-0.0 size=N/A time=00:20:21.59 bitrate=N/A speed=19.7x    frame=29524 fps=473 q=-0.0 size=N/A time=00:20:31.39 bitrate=N/A speed=19.7x    frame=29750 fps=473 q=-0.0 size=N/A time=00:20:40.82 bitrate=N/A speed=19.7x    frame=30016 fps=473 q=-0.0 size=N/A time=00:20:51.91 bitrate=N/A speed=19.7x    frame=30266 fps=473 q=-0.0 size=N/A time=00:21:02.34 bitrate=N/A speed=19.7x    frame=30506 fps=473 q=-0.0 size=N/A time=00:21:12.35 bitrate=N/A speed=19.7x    frame=30756 fps=473 q=-0.0 size=N/A time=00:21:22.78 bitrate=N/A speed=19.7x    frame=31011 fps=473 q=-0.0 size=N/A time=00:21:33.41 bitrate=N/A speed=19.7x    frame=31279 fps=474 q=-0.0 size=N/A time=00:21:44.59 bitrate=N/A speed=19.8x    frame=31559 fps=474 q=-0.0 size=N/A time=00:21:56.27 bitrate=N/A speed=19.8x    frame=31810 fps=474 q=-0.0 size=N/A time=00:22:06.74 bitrate=N/A speed=19.8x    frame=32034 fps=474 q=-0.0 size=N/A time=00:22:16.08 bitrate=N/A speed=19.8x    frame=32287 fps=474 q=-0.0 size=N/A time=00:22:26.63 bitrate=N/A speed=19.8x    frame=32495 fps=473 q=-0.0 size=N/A time=00:22:35.31 bitrate=N/A speed=19.7x    frame=32726 fps=473 q=-0.0 size=N/A time=00:22:44.94 bitrate=N/A speed=19.7x    frame=32992 fps=474 q=-0.0 size=N/A time=00:22:56.04 bitrate=N/A speed=19.8x    frame=33235 fps=474 q=-0.0 size=N/A time=00:23:06.17 bitrate=N/A speed=19.8x    frame=33432 fps=473 q=-0.0 size=N/A time=00:23:14.39 bitrate=N/A speed=19.7x    frame=33672 fps=473 q=-0.0 size=N/A time=00:23:24.40 bitrate=N/A speed=19.7x    frame=33905 fps=473 q=-0.0 size=N/A time=00:23:34.12 bitrate=N/A speed=19.7x    frame=34172 fps=473 q=-0.0 size=N/A time=00:23:45.25 bitrate=N/A speed=19.7x    [Parsed_ssim_10 @ 000001f84340abc0] SSIM Y:0.994783 (22.826071) U:0.993130 (21.630657) V:0.993093 (21.606807) All:0.994226 (22.385260)
[out#0/null @ 000001f843565e00] video:14697KiB audio:267500KiB subtitle:0KiB other streams:0KiB global headers:0KiB muxing overhead: unknown
frame=34203 fps=473 q=-0.0 Lsize=N/A time=00:23:46.55 bitrate=N/A speed=19.7x    
